<?xml version="1.0" encoding="UTF-8"?>
<svg width="70px" height="70px" viewBox="0 0 70 70" version="1.1" xmlns="http://www.w3.org/2000/svg" xmlns:xlink="http://www.w3.org/1999/xlink">
    <!-- Generator: Sketch 63.1 (92452) - https://sketch.com -->
    <title>Logo / EyeMed - Member</title>
    <desc>Created with Sketch.</desc>
    <g id="Logo-/-EyeMed---Member" stroke="none" stroke-width="1" fill="none" fill-rule="evenodd">
        <g id="Group-9">
            <polygon id="Fill-1" fill="#36982E" points="0 70 70 70 70 0 0 0"></polygon>
            <g id="Group-8" transform="translate(10.266667, 19.600000)" fill="#FEFEFE">
                <path d="M48.5050666,0.705414365 C48.7501727,0.705414365 48.747313,1.05440884 48.4993197,1.05440884 L48.2080741,1.05440884 L48.2080741,0.705414365 L48.5050666,0.705414365 Z M48.6059797,1.20148705 C49.018376,1.13232069 48.9750961,0.517963904 48.5050666,0.517963904 L48.0090801,0.517963904 L48.0090801,1.59951676 L48.2080741,1.59951676 L48.2080741,1.22461584 L48.395492,1.22461584 L48.6953716,1.59951676 L48.9145483,1.59951676 L48.9145483,1.55917201 L48.6059797,1.19862689 L48.6059797,1.20148705 Z M47.58519,1.06881964 C47.58519,1.54759386 47.88221,1.92832511 48.4070681,1.92832511 C48.9318437,1.92832511 49.2317509,1.54759386 49.2317509,1.07170731 C49.2317509,0.592933088 48.9318437,0.212256845 48.4070681,0.212256845 C47.88221,0.212256845 47.58519,0.592933088 47.58519,1.07459497 L47.58519,1.06881964 Z M49.4480129,1.07459497 C49.4480129,1.64563683 49.0760367,2.12729871 48.4070681,2.12729871 C47.7409317,2.12729871 47.3660134,1.64563683 47.3660134,1.07459497 C47.3660134,0.500637937 47.7409317,0.0218912216 48.4070681,0.0218912216 C49.0760367,0.0218912216 49.4480129,0.500637937 49.4480129,1.07459497 L49.4480129,1.07459497 Z" id="Fill-2"></path>
                <path d="M28.2598805,7.83136727 C27.6072174,8.48483123 26.8048346,8.93453633 25.9303552,9.16172651 L25.9303552,14.4060492 L23.3127189,14.4060492 L23.3127189,9.15845382 C22.4435739,8.93164867 21.6472128,8.48287862 20.9967495,7.83408992 L13.7894369,0.42363639 L17.578875,0.42363639 L22.8898187,5.9396192 C23.3515718,6.39999489 23.9679116,6.65336653 24.6277238,6.65336653 C25.2872885,6.65336653 25.9046732,6.39941736 26.3648864,5.93769409 L31.9465907,0.42363639 L35.7321243,0.42363639 L28.2598805,7.83136727 Z M8.19461665,2.62463921 C10.3967495,2.62463921 12.3162706,3.63092037 13.2965025,5.10723025 C12.3071692,6.24183357 10.3669155,7.03407028 8.19461665,7.03407028 C6.02099798,7.03407028 4.08099175,6.24183357 3.09149344,5.10723025 C4.07268773,3.63092037 5.99097152,2.62463921 8.19461665,2.62463921 L8.19461665,2.62463921 Z M8.19461665,9.42750134 C10.302848,9.42750134 12.2988377,8.85255425 13.8177585,7.8086785 C13.8709373,7.77223897 13.923951,7.73368182 13.9769648,7.69625223 C14.937399,7.00016088 15.6304548,6.15536874 16.0195614,5.22625689 C15.6224257,4.10892454 14.9059152,3.08949766 13.9126224,2.24858323 C13.7412901,2.10147752 13.5631936,1.9649874 13.3789653,1.83424511 C11.9204273,0.796887219 10.103799,0.232390718 8.19461665,0.232390718 C6.2836745,0.232390718 4.46756866,0.796887219 3.00922314,1.83424511 C2.82502236,1.9649874 2.64692586,2.10147752 2.47512612,2.24858323 C1.48128332,3.08949766 0.767220026,4.10892454 0.368132088,5.22625689 C0.127150506,5.90356469 0.00198526589,6.61673449 0.00198526589,7.34558016 C0.00198526589,9.28559342 0.881304073,11.096707 2.47512612,12.4456848 C4.01167243,13.7456273 6.04241795,14.4612997 8.19461665,14.4612997 C10.345798,14.4612997 12.3762685,13.7456273 13.9126224,12.4456848 C14.2271853,12.1795249 14.5122716,11.8949665 14.7712086,11.5975924 C14.4315412,11.4262579 14.1083718,11.2374323 13.80533,11.0280907 C13.4344812,10.7724089 13.101413,10.4969535 12.8064278,10.2028796 C11.7470602,11.3355303 10.0734976,12.0684737 8.19461665,12.0684737 C5.14220161,12.0684737 2.63331497,10.1379485 2.41279097,7.69625223 C2.46423741,7.73368182 2.51722366,7.77223897 2.57045738,7.8086785 C4.08805842,8.85255425 6.08558786,9.42750134 8.19461665,9.42750134 L8.19461665,9.42750134 Z M41.3204278,2.62463921 C43.5226156,2.62463921 45.4418618,3.63092037 46.4228361,5.10723025 C45.4325404,6.24183357 43.4918192,7.03407028 41.3204278,7.03407028 C39.1471116,7.03407028 37.2066654,6.24183357 36.2173321,5.10723025 C37.1983064,3.63092037 39.1170851,2.62463921 41.3204278,2.62463921 L41.3204278,2.62463921 Z M41.3204278,9.42750134 C43.4282467,9.42750134 45.4245113,8.85255425 46.9438172,7.8086785 C46.996336,7.77223897 47.0498447,7.73368182 47.1022535,7.69625223 C48.0630727,7.00016088 48.7569259,6.15536874 49.1464999,5.22625689 C48.7482919,4.10892454 48.0322763,3.08949766 47.0382135,2.24858323 C46.8666613,2.10147752 46.6879598,1.9649874 46.5046115,1.83424511 C45.045826,0.796887219 43.2301601,0.232390718 41.3204278,0.232390718 C39.4089632,0.232390718 37.5939023,0.796887219 36.1348693,1.83424511 C35.9514384,1.9649874 35.7725445,2.10147752 35.6007448,2.24858323 C34.6071495,3.08949766 33.8923713,4.10892454 33.4939982,5.22625689 C33.2527967,5.90356469 33.1283739,6.61673449 33.1283739,7.34558016 C33.1283739,9.28559342 34.0061253,11.096707 35.6007448,12.4456848 C37.1372911,13.7456273 39.1678442,14.4612997 41.3204278,14.4612997 C43.4710592,14.4612997 45.5021347,13.7456273 47.0382135,12.4456848 C47.3530514,12.1795249 47.6381378,11.8949665 47.8965798,11.5975924 C47.5566374,11.4262579 47.2342654,11.2374323 46.9310037,11.0280907 C46.5598525,10.7724089 46.2262893,10.4969535 45.931634,10.2028796 C44.8736963,11.3355303 43.2004086,12.0684737 41.3204278,12.0684737 C38.2671054,12.0684737 35.7591536,10.1379485 35.5376672,7.69625223 C35.5900761,7.73368182 35.6425949,7.77223897 35.6963785,7.8086785 C37.2139521,8.85255425 39.2119489,9.42750134 41.3204278,9.42750134 L41.3204278,9.42750134 Z" id="Fill-4"></path>
                <path d="M41.0508386,27.4702819 C37.855138,27.4702819 35.2538897,25.3529113 35.2538897,22.7491485 C35.2538897,20.1457982 37.855138,18.0278225 41.0508386,18.0278225 C44.2480516,18.0278225 46.8490249,20.1457982 46.8490249,22.7491485 C46.8490249,25.3529113 44.2480516,27.4702819 41.0508386,27.4702819 L41.0508386,27.4702819 Z M46.4385258,17.3849466 L46.4385258,17.3861842 C44.9472391,16.2537535 43.0517776,15.6338414 41.0508386,15.6338414 C38.9012521,15.6338414 36.8691317,16.3498989 35.3328879,17.650419 C33.7385709,18.9992042 32.8592521,20.8093277 32.8592521,22.7491485 C32.8592521,24.6881992 33.7385709,26.4985152 35.3328879,27.847108 C36.8691317,29.1477105 38.9012521,29.863988 41.0508386,29.863988 C43.0517776,29.863988 44.9472391,29.2439659 46.4385258,28.1114252 L46.4385258,29.8035121 L48.8773782,29.8035121 L48.8773782,14.1175718 L46.4385258,14.1175718 L46.4385258,17.3849466 Z M12.660794,29.8087374 L15.2791727,29.8087374 L15.2791727,15.6891745 L8.65261914,21.6798063 C8.42764067,21.9029263 8.12080436,22.0260231 7.79073328,22.0260231 C7.46283445,22.0260231 7.15852783,21.9048514 6.93291694,21.6848391 L0.204432892,15.6891745 L0.204432892,29.8087374 L2.82237167,29.8087374 L2.82237167,21.4844079 L5.13394158,23.5618463 C5.84294547,24.2571676 6.78660669,24.6396315 7.79122822,24.6396315 C8.80242148,24.6396315 9.7511421,24.2525199 10.4636931,23.5484806 L12.660794,21.557672 L12.660794,29.8087374 Z M24.6277403,18.0279325 C26.8301206,18.0279325 28.7500542,19.0324536 29.7288837,20.509176 C28.7401278,21.6447144 26.8002591,22.4352185 24.6277403,22.4352185 C22.4541216,22.4352185 20.5161776,21.6447144 19.5235722,20.509176 C20.5061138,19.0324536 22.4245626,18.0279325 24.6277403,18.0279325 L24.6277403,18.0279325 Z M24.6277403,24.8294196 C26.7357517,24.8294196 28.7325937,24.25428 30.2507172,23.2102117 C30.3037309,23.1743497 30.3574321,23.1359851 30.4088785,23.0997105 C31.3706601,22.4012816 32.0637434,21.558442 32.4535924,20.6297427 C32.0546145,19.5108703 31.3393413,18.4914159 30.345801,17.6505015 C30.1737813,17.5057059 29.9961522,17.3676757 29.811429,17.2374284 C28.353111,16.1995755 26.5371701,15.6339239 24.6277403,15.6339239 C22.7167431,15.6339239 20.9019022,16.1995755 19.4418793,17.2374284 C19.2586409,17.3676757 19.0800495,17.5057059 18.9079198,17.6505015 C17.914352,18.4914159 17.1993813,19.5108703 16.8002383,20.6297427 C16.5592018,21.3060605 16.4364287,22.0182402 16.4364287,22.7492585 C16.4364287,24.6883092 17.3139328,26.4986252 18.9079198,27.847218 C20.4439712,29.1477105 22.4760365,29.863988 24.6277403,29.863988 C26.7791416,29.863988 28.8087597,29.1477105 30.345801,27.847218 C30.6596765,27.5800956 30.9460277,27.2980398 31.2036998,26.9987406 C30.8645273,26.8287536 30.5423203,26.6397356 30.2388111,26.431164 C29.8679623,26.1756747 29.5339042,25.8992568 29.2396889,25.6059529 C28.1803213,26.7386036 26.5066487,27.4703644 24.6277403,27.4703644 C21.5758477,27.4703644 19.0661911,25.5388767 18.8454472,23.0997105 C18.8970586,23.1359851 18.9500723,23.1743497 19.003306,23.2102117 C20.5217045,24.25428 22.518959,24.8294196 24.6277403,24.8294196 L24.6277403,24.8294196 Z" id="Fill-6"></path>
            </g>
        </g>
    </g>
</svg>