<svg width="213" height="76" viewBox="0 0 213 76" fill="none" xmlns="http://www.w3.org/2000/svg">
<path d="M78.9 26.7999H97C96.7 22.2999 93 18.5 88.4 18.5C83.4 18.5 79.5 22.0999 78.9 26.7999ZM105.7 28.5C105.7 29.2 105.6 30.4 105.5 31C105.4 31.9 104.7 32.5999 103.8 32.5999H78.4C78.7 37.5999 83.1 42.5999 89.1 42.5999C92.5 42.5999 95.5 41.1 97.4 39.9C98.5 39.2 99.2 38.8999 99.9 39.7999L102.5 43.2999C103.2 44 103.4 44.7999 102.3 45.7C99.6 48 94.7 50.4 88.5 50.4C77.2 50.4 69.8 41.5 69.8 30.7999C69.8 20.2999 77.3 11.2 88.4 11.2C98.2 11.3 105.7 18.6 105.7 28.5ZM109.4 46.2999V11.7C109.4 5.39995 102.8 0.199951 94.6 0.199951H14.8C6.6 0.199951 0 5.39995 0 11.7V46.2999C0 52.5999 6.6 57.7999 14.8 57.7999L38 57.7L55 75.8V57.7999C55 52.5999 55 48.2 55 47.7999V28.6C55 22.7 52.3 19.4 47.3 19.4C41.6 19.4 38.3 23.4 37.7 24C37.9 24.7999 38 26.6 38 28.5V47.7999C38 48.7 37.2 49.5999 36.2 49.5999H31.3C30.3 49.5999 29.5 48.7999 29.5 47.7999V28.6C29.5 22.6 26.8 19.4 21.6 19.4C16 19.4 12.8 23.7999 12.4 25V47.7999C12.4 48.7 11.6 49.5999 10.6 49.5999H5.3C4.4 49.5999 3.5 48.7999 3.5 47.7999V14C3.5 13.1 4.3 12.2 5.3 12.2H7.9C8.7 12.2 9.2 12.7 9.5 13.3L10.5 16.5C11.3 15.7 15.6 11.3 22.8 11.3C28.2 11.3 32.1 13.4 34.8 17.2999C35.8 16.2999 41.2 11.3 48.3 11.3C59.7 11.3 63.7 19.2999 63.7 29V47.7C63.7 48.2999 63.6 51 63.5 57.7H94.5C102.9 57.7999 109.4 52.7 109.4 46.2999Z" fill="#35A39C"/>
<path d="M177.7 32.8C177.7 42.5 181.6 50.4 192.8 50.4C200.4 50.4 204.3 46 205.1 45.3L206 48C206.3 48.8 206.7 49.5 207.7 49.5H210.3C211.2 49.5 212.1 48.7 212.1 47.7V14C212.1 13.1 211.3 12.2 210.3 12.2H205.5C204.2 12.2 203.4 12.5 203.4 14V36.3C203.1 38 199.7 42.5 194.2 42.5C189.4 42.5 186.6 39.2 186.6 33.2V14C186.6 13.1 185.8 12.2 184.8 12.2H179.5C178.6 12.2 177.7 13 177.7 14V32.8ZM146.9 47.7C146.9 48.6 147.7 49.5 148.7 49.5H153.2C154.7 49.5 155.7 49.3 155.7 47.7V24.1C156.1 23.4 158.7 19.5 164.1 19.5C165.3 19.5 166.7 19.9 167.3 20.2C168.1 20.6 169.1 20.4 169.5 19.4L171.7 14.8C172.7 12.3 168.4 11.4 164.9 11.4C158.1 11.4 154.6 15.9 154 16.8L153 13.6C152.8 12.9 152.1 12.3 151.4 12.3H148.7C147.8 12.3 146.9 13.1 146.9 14.1V47.7ZM117.1 39.3C117.1 45.9 119.2 50.4 126.6 50.4C131.1 50.4 136.6 48.2 137.5 47.6C138.4 47.1 138.8 46.4 138.3 45.4L136.6 41.3C136.2 40.5 135.7 39.9 134.5 40.5C133.4 41.1 130.8 42.2 128.8 42.2C127 42.2 125.8 41.6 125.8 38.5V20H135.3C136.3 20 137.1 19.2 137.1 18.2V14C137.1 13 136.4 12.2 135.3 12.2H125.8V1.8C125.8 0.9 125.1 0 124.1 0L118.8 0.1C117.9 0.1 117 0.9 117 1.9V12.3H113.1C112.1 12.3 111.3 13 111.3 14.1V18.3C111.3 19.2 112 20.1 113.1 20.1H117V39.3H117.1Z" fill="#49505B"/>
</svg>
