<?xml version="1.0" encoding="UTF-8"?>
<svg xmlns="http://www.w3.org/2000/svg" version="1.1" viewBox="0 0 2042.7 399.6" data-name="Layer 2">
    <defs>
        <style>
            .cls {
                fill: #007fff;
            }
        </style>
    </defs>
    <!-- Generator: Adobe Illustrator 28.6.0, SVG Export Plug-In . SVG Version: 1.2.0 Build 709)  -->
    <g>
        <g id="Laag_1">
            <g>
                <path class="cls" d="m 202.7,324.3 c -16.1,-0.5 -31.8,-2.5 -46.7,-8.3 -13.3,-5.4 -25.1,-13.7 -34.5,-24.6 -9.8,-11.5 -17.1,-24.9 -21.5,-39.3 -3.8,-12.8 -6.1,-26 -7,-39.2 -1.5,-21.9 0.8,-44 7,-65.3 4.4,-14.4 11.7,-27.8 21.5,-39.3 9.4,-10.8 21.2,-19.4 34.4,-24.8 14.8,-5.9 30.7,-8.8 46.7,-8.6 h 3.8 V 0.1 h -3.8 c -5.4,0 -10.7,0.2 -16,0.5 -22.9,1.2 -45.5,6.2 -66.9,14.7 -24,9.5 -45.8,23.9 -64,42.1 C 37.8,75.5 23.8,97 14.5,120.7 6.9,140.2 2.2,160.6 0.7,181.5 v -0.2 C 0.3,187.5 0,193.6 0,199.7 c 0,6.1 0.3,12.1 0.7,17.9 v 0.2 c 1.5,20.9 6.2,41.3 13.9,60.8 18.9,48.5 57,86.8 105.2,105.7 26.4,10.4 54.5,15.7 82.9,15.2 h 3.8 v -75.1 h -3.8 z M 349.4,57.8 C 331.2,39.5 309.5,25.2 285.6,15.6 264.3,7 241.7,2 218.7,0.8 c -2.8,-0.2 -5.5,-0.3 -8.3,-0.4 -1.3,0 -2.7,-0.2 -4,-0.2 v 74.5 0 c 2.3,0 4.3,0.5 6.9,0.7 12.3,0.7 24.3,3.5 35.7,8.2 13.2,5.5 25,13.9 34.4,24.7 9.2,10.7 16.1,23 20.7,36.3 0.4,1 0.7,2.1 1,3.2 10,34.1 10,70.4 0,104.5 -4.4,14.4 -11.7,27.8 -21.5,39.3 -9.4,10.7 -21.2,19.2 -34.3,24.6 -11.4,4.6 -23.4,7.3 -35.7,8 -2.2,0.2 -4.9,0.2 -7.1,0.2 v 75.1 h 7.1 c 24.8,-0.7 49.3,-5.8 72.3,-15 48,-19.2 85.9,-57.4 104.7,-105.7 19.2,-50.9 19.2,-107 -0.2,-157.7 -9.3,-23.7 -23.3,-45.3 -41,-63.3 z" />
                <path class="cls" d="M598,228.5c-5,14.9-9,30.3-11.8,45.8-1.6-8.4-3.2-16.4-4.8-24.3-1.6-7.8-3.2-14.9-4.8-21.5l-53.6-208.4c-1.5-5.9-5.2-11.1-10.3-14.5-3.8-2.6-8.2-4.3-12.8-5-2.2-.3-4.4-.5-6.7-.5h-76l.2.5.8,2.6,6.7,22.2,112.7,374.1h81.8l4.6-15.1v-241.7l-26,85.8Z M826.1,248.9c-1.5,7.2-3,14.9-4.5,23.2-2.8-14.8-6.7-29.4-11.8-43.6l-62.3-208.3c-2.4-5.6-6.2-10.6-11-14.3-3.7-2.8-8-4.6-12.6-5.2-2.2-.3-4.4-.5-6.6-.5h-26.8c-2,0-4.1.2-6.1.5-10.7,1.9-19.6,9.3-23.3,19.5l-31.1,102.2v.6l-6,19.8v241.5l6.2-20.5v-.6l63.7-211.2c1.4-3.8,2.8-8.1,4-12.7,1.2-4.5,2.5-9.5,3.8-14.6,1.2,5.1,2.5,10,3.7,14.6,1.2,4.6,2.6,8.9,4,12.7l73.3,247.6h47.2l-.2-167.2c-1.3,5.3-2.4,10.8-3.6,16.5Z M907.3.5h.2c-4.7.8-9.2,2.6-13.1,5.5-5,3.3-8.6,8.3-10.3,14l-44.6,174.3h0c0,.1-8.9,34-8.9,34l-.9,4,.2,167.2h34.7L984.9.5v-.5c0,0-71.4,0-71.4,0-2.1,0-4.2.2-6.2.5Z" />
                <path class="cls" d="M1102,14.3c-2-2.6-4.3-5.1-6.7-7.4-1.8-1.7-3.9-3.1-6.2-4.2-2.3-1-4.7-1.7-7.2-2-3.3-.4-6.5-.6-9.8-.5h-47.7v399.5h79.7v-214.3c0-5.9,0-12.2-.4-18.8s-.8-13.4-1.5-20.7l117.8,152.7v-131.6l-118-152.7Z M1284.9,211.5c0,6.4.2,13.2.5,20.4s1,14.6,1.9,22.4l-38.1-49.2h0c0,0-29.2-38.1-29.2-38.1v131.5l29.2,38,36.9,47.8c3.8,4.9,8.5,9,14,11.9,5.5,2.4,11.5,3.6,17.5,3.4h47.1V0h-79.8v211.5h0Z" />
                <path class="cls" d="M 1418.9004 0 L 1418.9004 399.5 L 1585.9004 399.5 L 1586.9004 399.5 L 1586.9004 399.59961 L 1642 399.59961 L 1642 399.5 L 1668.8008 399.5 L 1668.8008 328.19922 L 1641 328.19922 L 1636.3008 328.19922 L 1586.9004 328.19922 L 1585.9004 328.19922 L 1509.8008 328.19922 L 1509.8008 232.90039 L 1585.9004 232.90039 L 1586.9004 232.90039 L 1586.9004 232.80078 L 1631.3008 232.80078 L 1631.3008 164.19922 L 1586.9004 164.19922 L 1585.9004 164.19922 L 1509.8008 164.19922 L 1509.8008 70.800781 L 1585.9004 70.800781 L 1586.9004 70.800781 L 1634.5 70.800781 L 1641 70.800781 L 1668.8008 70.800781 L 1668.8008 0 L 1634.5 0 L 1586.9004 0 L 1585.9004 0 L 1418.9004 0 z " />
                <path class="cls" d="M 1723.9004 0 L 1723.9004 0.59960938 L 1723.9004 399.59961 L 1814.3008 399.59961 L 1814.3008 251.80078 L 1836.9004 251.80078 L 1837.5 251.80078 C 1840.8 251.80078 1843.9992 252.10078 1847.1992 252.80078 C 1849.3992 253.20078 1851.5 254.09922 1853.5 255.19922 C 1857.7 257.89922 1861.1992 261.6 1863.6992 266 L 1928.4004 382 C 1935.0004 393.6 1945.9 399.59961 1961 399.59961 L 2042.8008 399.59961 L 1959.9004 260.5 C 1952.4004 248.6 1941.9004 238.80078 1929.4004 232.30078 C 1941.5004 227.70078 1952.8 221.30078 1963 213.30078 C 1981.9 198.50078 1995.8004 178.19961 2002.4004 155.09961 C 2005.8004 143.19961 2007.6 130.80039 2007.5 118.40039 C 2007.7 102.20039 2004.8 86.299219 1999 71.199219 C 1993.1 56.499219 1983.6996 43.599219 1971.5996 33.699219 C 1957.1996 22.199219 1940.6008 13.700391 1922.8008 8.9003906 C 1905.9008 4.1003906 1888.4004 1.3 1870.9004 0.5 C 1864.4004 0.1 1857.5008 0 1850.8008 0 L 1836.9004 0 L 1723.9004 0 z M 1814.3008 69.400391 L 1836.9004 69.400391 L 1850.6992 69.400391 C 1873.9992 69.400391 1891.3 74.199219 1902.5 84.199219 C 1913.7 94.199219 1919.1992 107.79922 1919.1992 125.19922 C 1919.1992 142.59922 1919.1992 131.70039 1918.6992 134.90039 C 1918.0992 139.90039 1917 144.90078 1915.5 149.80078 C 1913.1 157.20078 1909 163.99922 1903.5 169.69922 C 1897.5 175.69922 1890.1992 180.19961 1882.1992 183.09961 C 1872.0992 186.49961 1861.4008 188.10078 1850.8008 187.80078 L 1836.9004 187.80078 L 1836.9004 187.90039 L 1814.3008 187.90039 L 1814.3008 70.5 L 1814.3008 69.400391 z " />
            </g>
        </g>
    </g>
</svg>
